<svg id="svg" version="1.1" xmlns="http://www.w3.org/2000/svg" xmlns:xlink="http://www.w3.org/1999/xlink" width="400" height="400" viewBox="0, 0, 400,400"><g id="svgg"><path id="path0" d="M42.750 7.094 C 42.125 7.416,41.553 8.016,41.474 8.433 C 41.418 8.723,41.185 8.760,38.748 8.868 C 30.652 9.226,29.583 10.106,29.583 16.417 C 29.583 20.098,29.688 20.546,31.078 22.833 C 31.859 24.118,38.448 34.571,39.746 36.583 C 40.041 37.042,40.710 38.092,41.232 38.917 C 41.754 39.742,42.657 41.167,43.239 42.083 C 43.820 43.000,44.484 44.050,44.714 44.417 C 44.944 44.783,47.599 48.983,50.615 53.750 C 53.630 58.517,57.470 64.592,59.148 67.250 C 62.667 72.827,67.364 80.257,68.367 81.833 C 68.746 82.429,69.293 83.292,69.581 83.750 C 70.044 84.485,70.525 85.242,72.758 88.750 C 73.050 89.208,75.112 92.471,77.341 96.000 C 88.386 113.491,97.760 128.317,98.810 129.956 C 99.235 130.620,100.108 131.995,100.750 133.012 C 101.392 134.029,102.187 135.286,102.518 135.806 C 102.848 136.325,104.918 139.600,107.118 143.083 C 109.317 146.567,113.654 153.429,116.754 158.333 C 119.855 163.237,123.995 169.786,125.954 172.886 C 127.913 175.985,129.588 178.709,129.675 178.938 C 129.774 179.198,129.836 198.689,129.840 230.803 C 129.848 297.145,129.792 295.387,132.251 307.333 C 140.047 345.223,160.360 371.160,191.833 383.411 C 192.704 383.750,193.679 384.132,194.000 384.260 C 199.393 386.408,210.849 389.377,218.375 390.575 C 222.485 391.229,223.251 391.340,225.833 391.656 C 246.526 394.185,272.581 393.290,291.583 389.397 C 317.617 384.063,335.594 373.966,349.423 356.914 C 356.786 347.835,363.146 334.736,365.890 323.000 C 366.308 321.212,366.798 319.112,366.980 318.333 C 367.162 317.554,367.435 316.467,367.587 315.917 C 367.852 314.962,368.204 313.529,368.756 311.167 C 371.327 300.172,371.178 283.788,368.395 271.417 C 367.847 268.982,367.467 267.402,367.332 267.000 C 367.255 266.771,366.992 265.908,366.747 265.083 C 365.919 262.294,365.113 259.978,364.398 258.333 C 364.114 257.680,364.050 257.532,363.390 256.000 C 362.047 252.879,358.643 246.863,357.120 244.917 C 357.048 244.825,356.636 244.262,356.205 243.667 C 355.774 243.071,355.345 242.499,355.252 242.395 C 355.159 242.292,354.971 242.037,354.833 241.829 C 354.482 241.297,352.350 238.693,351.750 238.063 C 351.475 237.774,351.013 237.248,350.723 236.894 C 348.928 234.701,344.143 230.297,340.334 227.333 C 338.558 225.952,333.454 222.500,333.186 222.500 C 333.084 222.500,333.000 222.425,333.000 222.333 C 333.000 222.242,332.918 222.167,332.817 222.167 C 332.717 222.167,332.436 222.025,332.192 221.853 C 331.949 221.680,331.337 221.314,330.833 221.039 C 330.329 220.765,329.392 220.242,328.750 219.877 C 327.412 219.117,322.556 216.753,320.333 215.778 C 318.200 214.844,314.999 213.564,313.083 212.881 C 312.442 212.652,311.692 212.364,311.417 212.240 C 310.865 211.993,308.729 211.235,306.417 210.467 C 305.592 210.193,304.767 209.907,304.583 209.831 C 302.462 208.955,290.020 205.214,285.167 203.994 C 284.754 203.890,284.267 203.741,284.083 203.662 C 283.900 203.584,283.412 203.443,283.000 203.349 C 281.384 202.981,279.527 202.511,278.346 202.172 C 277.665 201.976,276.652 201.712,276.096 201.585 C 274.323 201.181,273.598 201.006,273.000 200.840 C 272.363 200.662,268.649 199.765,265.750 199.088 C 264.742 198.853,263.654 198.586,263.333 198.496 C 263.012 198.405,262.412 198.252,262.000 198.156 C 260.968 197.915,259.003 197.422,257.461 197.017 C 252.957 195.834,252.923 195.825,250.291 195.099 C 248.743 194.672,246.928 194.146,246.500 194.000 C 246.271 193.922,245.521 193.696,244.833 193.499 C 244.146 193.301,242.946 192.930,242.167 192.674 C 241.387 192.417,240.112 192.007,239.333 191.762 C 238.554 191.516,237.767 191.249,237.583 191.168 C 237.400 191.087,236.688 190.830,236.000 190.597 C 233.568 189.774,229.992 188.387,228.398 187.650 C 228.022 187.476,227.656 187.333,227.587 187.333 C 227.034 187.333,220.630 183.894,218.917 182.677 C 214.062 179.228,210.750 174.059,210.246 169.149 C 209.804 164.844,221.490 157.890,232.583 155.857 C 247.128 153.191,263.266 154.745,272.466 159.698 C 274.788 160.948,279.445 164.466,279.696 165.159 C 279.726 165.241,280.052 165.632,280.422 166.029 C 284.358 170.253,287.711 177.553,289.504 185.804 C 290.604 190.865,290.769 191.369,291.652 192.375 C 293.209 194.148,296.318 194.459,307.163 193.924 C 311.843 193.694,315.055 193.551,324.333 193.164 C 326.579 193.070,329.954 192.919,331.833 192.828 C 333.712 192.737,337.050 192.588,339.250 192.497 C 341.450 192.405,345.050 192.256,347.250 192.164 C 359.737 191.644,360.538 191.069,360.525 182.625 C 360.521 180.045,360.554 179.667,360.782 179.667 C 361.996 179.667,362.667 178.437,362.665 176.214 C 362.660 170.578,361.550 162.768,359.745 155.667 C 359.524 154.796,359.259 153.746,359.157 153.333 C 359.055 152.921,358.911 152.433,358.838 152.250 C 358.764 152.067,358.403 150.979,358.034 149.833 C 357.355 147.722,356.362 145.017,355.913 144.058 C 355.777 143.769,355.667 143.485,355.667 143.427 C 355.667 143.222,352.850 137.501,352.238 136.463 C 351.528 135.259,351.027 134.394,350.764 133.917 C 350.598 133.617,349.729 132.258,348.524 130.417 C 348.124 129.804,346.859 128.048,346.244 127.250 C 346.102 127.067,345.821 126.697,345.618 126.427 C 342.514 122.305,337.133 116.843,332.150 112.755 C 331.695 112.382,329.971 111.082,329.269 110.583 C 329.011 110.400,328.488 110.020,328.108 109.740 C 326.914 108.859,322.994 106.424,321.083 105.376 C 319.123 104.301,313.812 101.667,313.606 101.667 C 313.497 101.667,312.604 101.297,311.583 100.829 C 311.400 100.745,310.725 100.486,310.083 100.253 C 309.442 100.021,308.767 99.757,308.583 99.667 C 307.355 99.065,299.625 96.728,295.917 95.837 C 292.987 95.132,292.401 94.999,291.083 94.733 C 281.083 92.715,273.415 91.884,261.271 91.500 C 258.625 91.417,256.428 91.317,256.389 91.278 C 256.350 91.239,257.644 89.117,259.263 86.562 C 262.367 81.663,267.227 73.991,268.514 71.957 C 268.934 71.293,270.277 69.175,271.499 67.250 C 274.504 62.514,281.267 51.824,285.628 44.917 C 287.596 41.800,289.450 38.875,289.747 38.417 C 290.314 37.544,298.438 24.735,299.652 22.800 C 300.981 20.682,301.153 19.686,301.166 14.000 C 301.167 13.894,302.924 11.163,303.196 10.847 C 303.580 10.400,303.467 8.484,303.023 7.892 C 302.157 6.738,304.956 6.821,268.737 6.871 L 236.057 6.917 235.445 7.384 C 235.108 7.640,234.725 8.060,234.592 8.316 L 234.352 8.781 231.634 8.895 C 224.165 9.208,225.131 8.331,217.178 22.000 C 213.844 27.729,209.037 35.979,206.496 40.333 C 203.954 44.688,198.142 54.663,193.580 62.500 C 189.018 70.337,182.834 80.950,179.837 86.083 C 176.839 91.217,173.156 97.533,171.652 100.119 C 169.117 104.477,168.897 104.800,168.652 104.535 C 168.506 104.378,167.534 102.787,166.492 101.000 C 165.450 99.212,164.557 97.712,164.507 97.667 C 164.457 97.621,164.316 97.404,164.193 97.185 C 164.069 96.967,163.828 96.538,163.657 96.232 C 163.485 95.926,163.163 95.393,162.942 95.046 C 162.461 94.294,158.954 88.348,158.265 87.117 C 157.998 86.640,157.727 86.212,157.662 86.167 C 157.598 86.121,157.492 85.915,157.428 85.708 C 157.364 85.502,157.241 85.333,157.155 85.333 C 157.070 85.333,157.000 85.257,157.000 85.163 C 157.000 85.070,156.802 84.680,156.560 84.297 C 156.205 83.734,151.324 75.506,150.600 74.250 C 150.307 73.740,145.143 65.067,144.216 63.527 C 144.014 63.191,143.795 62.804,143.728 62.667 C 143.662 62.529,143.561 62.379,143.503 62.333 C 143.408 62.257,139.745 56.064,137.491 52.167 C 137.358 51.938,137.207 51.712,137.155 51.667 C 137.102 51.621,137.010 51.471,136.950 51.333 C 136.890 51.196,136.670 50.809,136.462 50.475 C 136.254 50.140,135.183 48.351,134.083 46.501 C 132.983 44.650,131.918 42.861,131.716 42.526 C 131.514 42.191,131.295 41.804,131.228 41.667 C 131.162 41.529,131.063 41.379,131.009 41.333 C 130.954 41.287,130.817 41.063,130.703 40.833 C 130.589 40.604,130.366 40.215,130.207 39.967 C 129.975 39.609,125.404 31.928,124.622 30.583 C 124.515 30.400,124.041 29.613,123.568 28.833 C 123.095 28.054,122.005 26.230,121.146 24.780 C 120.286 23.329,119.418 21.867,119.216 21.530 C 119.014 21.193,118.796 20.804,118.730 20.667 C 118.664 20.529,118.398 20.103,118.139 19.720 C 117.879 19.337,117.667 18.973,117.667 18.912 C 117.667 18.851,117.525 18.602,117.353 18.359 C 117.180 18.116,116.890 17.654,116.708 17.333 C 116.526 17.012,115.332 14.988,114.055 12.833 C 112.778 10.679,111.624 8.729,111.491 8.500 C 111.072 7.776,110.768 7.474,110.132 7.149 C 109.260 6.704,43.609 6.650,42.750 7.094 M110.934 12.625 C 112.005 14.435,113.198 16.442,113.586 17.083 C 113.974 17.725,115.338 20.012,116.617 22.167 C 117.896 24.321,120.482 28.671,122.363 31.833 C 124.245 34.996,127.343 40.208,129.249 43.417 C 131.154 46.625,133.855 51.163,135.250 53.500 C 136.645 55.837,139.457 60.563,141.498 64.000 C 143.540 67.438,146.840 72.987,148.833 76.333 C 150.825 79.679,152.809 83.017,153.242 83.750 C 154.550 85.963,156.273 88.861,159.167 93.716 C 164.076 101.952,167.451 107.631,171.095 113.784 C 172.959 116.930,173.629 117.934,173.767 117.784 C 173.868 117.673,174.401 116.796,174.951 115.833 C 175.851 114.259,176.808 112.613,181.248 105.000 C 181.970 103.763,183.321 101.438,184.252 99.833 C 185.182 98.229,187.803 93.735,190.075 89.846 C 192.347 85.957,194.377 82.469,194.585 82.096 C 194.794 81.722,195.520 80.477,196.200 79.329 C 196.879 78.181,197.488 77.131,197.552 76.996 C 197.617 76.861,197.807 76.524,197.976 76.248 C 198.324 75.678,207.444 60.069,208.248 58.667 C 208.863 57.596,213.456 49.711,215.919 45.500 C 216.857 43.896,220.681 37.333,224.416 30.917 C 228.152 24.500,231.976 17.938,232.915 16.333 C 233.853 14.729,235.142 12.517,235.780 11.417 L 236.938 9.417 268.983 9.375 L 301.028 9.332 300.647 9.958 C 300.438 10.302,299.507 11.783,298.578 13.250 C 293.376 21.465,289.218 28.018,288.744 28.750 C 288.448 29.208,287.382 30.896,286.377 32.500 C 284.583 35.364,279.252 43.781,277.982 45.754 C 277.311 46.796,275.787 49.208,273.981 52.083 C 272.318 54.731,262.853 69.664,262.255 70.583 C 261.956 71.042,261.128 72.354,260.414 73.500 C 259.700 74.646,257.828 77.608,256.253 80.083 C 254.679 82.558,252.467 86.046,251.337 87.833 C 250.208 89.621,248.970 91.571,248.585 92.167 C 248.200 92.763,247.804 93.404,247.704 93.593 L 247.523 93.936 254.553 93.937 C 282.524 93.943,303.927 98.569,321.000 108.298 C 327.962 112.265,335.136 118.132,340.303 124.083 C 341.098 125.000,341.790 125.787,341.840 125.833 C 342.179 126.144,344.678 129.412,345.791 131.000 C 350.596 137.853,354.700 146.615,356.875 154.667 C 357.011 155.171,357.244 156.033,357.393 156.583 C 357.951 158.656,358.780 162.788,359.081 165.000 C 359.137 165.412,359.213 165.862,359.250 166.000 C 359.408 166.590,359.992 172.782,360.096 174.958 L 360.209 177.333 358.813 177.333 C 358.045 177.333,355.879 177.405,354.000 177.495 C 352.121 177.584,347.921 177.774,344.667 177.916 C 341.412 178.058,336.275 178.283,333.250 178.417 C 330.225 178.551,325.200 178.773,322.083 178.910 C 318.967 179.047,313.802 179.283,310.607 179.435 C 304.146 179.741,304.609 179.808,304.419 178.541 C 304.221 177.218,303.630 174.484,303.152 172.680 C 296.903 149.076,282.391 139.663,252.841 140.046 C 249.400 140.091,245.871 140.211,245.000 140.313 C 244.129 140.415,242.704 140.581,241.833 140.682 C 228.979 142.175,216.922 147.605,211.830 154.194 C 205.505 162.378,206.305 173.989,213.722 181.639 C 220.277 188.400,236.643 194.714,265.417 201.585 C 269.970 202.672,278.949 204.903,280.917 205.436 C 324.437 217.223,342.278 227.304,355.950 247.833 C 369.875 268.742,372.133 301.755,361.296 326.000 C 351.334 348.288,334.567 363.201,310.500 371.178 C 292.260 377.223,266.983 379.735,242.750 377.911 C 205.090 375.076,178.345 361.289,162.092 336.333 C 161.286 335.096,160.498 333.896,160.341 333.667 C 153.527 323.739,146.366 301.896,144.927 286.647 C 144.509 282.219,144.493 279.874,144.497 222.994 L 144.500 168.570 142.958 166.122 C 142.110 164.775,140.479 162.194,139.333 160.388 C 137.436 157.397,134.946 153.459,131.870 148.583 C 131.233 147.575,129.451 144.762,127.910 142.333 C 126.368 139.904,124.839 137.489,124.511 136.967 C 123.030 134.602,120.829 131.123,118.680 127.750 C 117.395 125.733,116.166 123.783,115.948 123.417 C 115.730 123.050,114.406 120.950,113.004 118.750 C 111.603 116.550,109.747 113.625,108.881 112.250 C 105.004 106.093,101.002 99.768,93.248 87.537 C 91.230 84.354,88.993 80.813,88.277 79.667 C 87.561 78.521,86.424 76.721,85.751 75.667 C 85.078 74.612,84.196 73.225,83.791 72.583 C 83.386 71.942,81.967 69.692,80.636 67.583 C 79.306 65.475,77.695 62.925,77.057 61.917 C 76.418 60.908,74.781 58.321,73.419 56.167 C 72.058 54.012,69.258 49.587,67.197 46.333 C 65.137 43.079,62.815 39.404,62.037 38.167 C 61.258 36.929,60.452 35.654,60.244 35.333 C 60.036 35.012,58.562 32.688,56.968 30.167 C 55.374 27.646,53.760 25.096,53.381 24.500 C 53.002 23.904,51.796 21.992,50.700 20.250 C 49.604 18.508,47.662 15.433,46.385 13.417 C 45.109 11.400,44.008 9.656,43.939 9.542 C 43.839 9.375,50.375 9.333,76.400 9.333 L 108.987 9.333 110.934 12.625 M199.833 259.762 C 199.833 286.901,199.778 286.201,202.589 294.333 C 211.873 321.193,233.013 333.501,266.000 331.250 C 283.312 330.070,294.861 325.290,303.591 315.694 C 309.559 309.135,312.500 301.892,312.500 293.755 C 312.500 279.057,303.239 269.905,282.083 263.695 C 281.442 263.506,280.167 263.130,279.250 262.859 C 278.333 262.587,276.983 262.199,276.250 261.997 C 275.517 261.795,274.579 261.531,274.167 261.411 C 270.727 260.412,261.278 257.960,246.500 254.231 C 237.705 252.012,230.594 250.119,228.083 249.329 C 227.533 249.156,225.621 248.558,223.833 247.999 C 219.054 246.504,216.217 245.526,211.801 243.851 C 208.080 242.440,204.194 240.826,201.773 239.686 C 200.777 239.217,199.933 238.833,199.898 238.833 C 199.862 238.833,199.833 248.251,199.833 259.762 M203.528 258.975 C 205.625 259.872,216.651 263.357,222.250 264.893 C 226.014 265.926,226.743 266.115,234.833 268.155 C 249.160 271.768,252.696 272.684,260.417 274.782 C 262.617 275.380,264.567 275.907,264.750 275.953 C 284.477 280.932,294.960 287.703,297.339 297.000 C 300.094 307.772,290.194 321.521,275.583 327.214 C 270.582 329.162,255.577 329.508,245.000 327.918 C 244.037 327.773,243.100 327.608,242.917 327.551 C 242.733 327.494,242.133 327.352,241.583 327.234 C 238.232 326.521,232.787 324.700,230.667 323.582 C 230.438 323.461,229.650 323.065,228.917 322.701 C 227.421 321.960,226.522 321.481,226.260 321.285 C 226.163 321.213,225.483 320.788,224.750 320.341 C 221.964 318.642,216.995 314.222,214.811 311.500 C 213.251 309.555,211.290 306.788,210.738 305.752 C 210.410 305.137,210.084 304.584,210.000 304.500 C 209.814 304.314,207.000 298.769,207.000 298.588 C 207.000 298.521,206.820 298.101,206.000 296.250 C 205.919 296.067,205.659 295.354,205.423 294.667 C 205.187 293.979,204.924 293.267,204.840 293.083 C 204.756 292.900,204.526 292.225,204.328 291.583 C 204.131 290.942,203.870 290.117,203.748 289.750 C 203.255 288.267,203.007 287.173,202.821 285.667 C 202.567 283.608,202.400 258.667,202.641 258.667 C 202.732 258.667,203.131 258.806,203.528 258.975 " stroke="none" fill="#040404" fill-rule="evenodd"></path><path id="path1" d="M43.939 9.542 C 44.008 9.656,45.109 11.400,46.385 13.417 C 47.662 15.433,49.604 18.508,50.700 20.250 C 51.796 21.992,53.002 23.904,53.381 24.500 C 53.760 25.096,55.374 27.646,56.968 30.167 C 58.562 32.688,60.036 35.012,60.244 35.333 C 60.452 35.654,61.258 36.929,62.037 38.167 C 62.815 39.404,65.137 43.079,67.197 46.333 C 69.258 49.587,72.058 54.012,73.419 56.167 C 74.781 58.321,76.418 60.908,77.057 61.917 C 77.695 62.925,79.306 65.475,80.636 67.583 C 81.967 69.692,83.386 71.942,83.791 72.583 C 84.196 73.225,85.078 74.612,85.751 75.667 C 86.424 76.721,87.561 78.521,88.277 79.667 C 88.993 80.813,91.230 84.354,93.248 87.537 C 101.002 99.768,105.004 106.093,108.881 112.250 C 109.747 113.625,111.603 116.550,113.004 118.750 C 114.406 120.950,115.730 123.050,115.948 123.417 C 116.166 123.783,117.395 125.733,118.680 127.750 C 120.829 131.123,123.030 134.602,124.511 136.967 C 124.839 137.489,126.368 139.904,127.910 142.333 C 129.451 144.762,131.233 147.575,131.870 148.583 C 134.946 153.459,137.436 157.397,139.333 160.388 C 140.479 162.194,142.110 164.775,142.958 166.122 L 144.500 168.570 144.497 222.994 C 144.493 279.874,144.509 282.219,144.927 286.647 C 146.366 301.896,153.527 323.739,160.341 333.667 C 160.498 333.896,161.286 335.096,162.092 336.333 C 182.492 367.657,220.204 381.647,274.167 377.911 C 285.713 377.111,295.828 375.407,306.333 372.491 C 331.967 365.377,350.827 349.424,361.296 326.000 C 372.133 301.755,369.875 268.742,355.950 247.833 C 342.278 227.304,324.437 217.223,280.917 205.436 C 278.949 204.903,269.970 202.672,265.417 201.585 C 236.643 194.714,220.277 188.400,213.722 181.639 C 206.305 173.989,205.505 162.378,211.830 154.194 C 216.922 147.605,228.979 142.175,241.833 140.682 C 242.704 140.581,244.129 140.415,245.000 140.313 C 245.871 140.211,249.400 140.091,252.841 140.046 C 282.391 139.663,296.903 149.076,303.152 172.680 C 303.630 174.484,304.221 177.218,304.419 178.541 C 304.609 179.808,304.146 179.741,310.607 179.435 C 313.802 179.283,318.967 179.047,322.083 178.910 C 325.200 178.773,330.225 178.551,333.250 178.417 C 336.275 178.283,341.412 178.058,344.667 177.916 C 347.921 177.774,352.121 177.584,354.000 177.495 C 355.879 177.405,358.045 177.333,358.813 177.333 L 360.209 177.333 360.096 174.958 C 359.992 172.782,359.408 166.590,359.250 166.000 C 359.213 165.862,359.137 165.412,359.081 165.000 C 358.780 162.788,357.951 158.656,357.393 156.583 C 357.244 156.033,357.011 155.171,356.875 154.667 C 354.700 146.615,350.596 137.853,345.791 131.000 C 344.678 129.412,342.179 126.144,341.840 125.833 C 341.790 125.787,341.098 125.000,340.303 124.083 C 322.710 103.817,294.632 93.946,254.553 93.937 L 247.523 93.936 247.704 93.593 C 247.804 93.404,248.200 92.763,248.585 92.167 C 248.970 91.571,250.208 89.621,251.337 87.833 C 252.467 86.046,254.679 82.558,256.253 80.083 C 257.828 77.608,259.700 74.646,260.414 73.500 C 261.128 72.354,261.956 71.042,262.255 70.583 C 262.853 69.664,272.318 54.731,273.981 52.083 C 275.787 49.208,277.311 46.796,277.982 45.754 C 279.252 43.781,284.583 35.364,286.377 32.500 C 287.382 30.896,288.448 29.208,288.744 28.750 C 289.218 28.018,293.376 21.465,298.578 13.250 C 299.507 11.783,300.438 10.302,300.647 9.958 L 301.028 9.332 268.983 9.375 L 236.938 9.417 235.780 11.417 C 235.142 12.517,233.853 14.729,232.915 16.333 C 231.976 17.938,228.152 24.500,224.416 30.917 C 220.681 37.333,216.857 43.896,215.919 45.500 C 213.456 49.711,208.863 57.596,208.248 58.667 C 207.444 60.069,198.324 75.678,197.976 76.248 C 197.807 76.524,197.617 76.861,197.552 76.996 C 197.488 77.131,196.879 78.181,196.200 79.329 C 195.520 80.477,194.794 81.722,194.585 82.096 C 194.377 82.469,192.347 85.957,190.075 89.846 C 187.803 93.735,185.182 98.229,184.252 99.833 C 183.321 101.438,181.970 103.763,181.248 105.000 C 176.808 112.613,175.851 114.259,174.951 115.833 C 174.401 116.796,173.868 117.673,173.767 117.784 C 173.629 117.934,172.959 116.930,171.095 113.784 C 167.451 107.631,164.076 101.952,159.167 93.716 C 156.273 88.861,154.550 85.963,153.242 83.750 C 152.809 83.017,150.825 79.679,148.833 76.333 C 146.840 72.987,143.540 67.438,141.498 64.000 C 139.457 60.563,136.645 55.837,135.250 53.500 C 133.855 51.163,131.154 46.625,129.249 43.417 C 127.343 40.208,124.245 34.996,122.363 31.833 C 120.482 28.671,117.896 24.321,116.617 22.167 C 115.338 20.012,113.974 17.725,113.586 17.083 C 113.198 16.442,112.005 14.435,110.934 12.625 L 108.987 9.333 76.400 9.333 C 50.375 9.333,43.839 9.375,43.939 9.542 M201.773 239.686 C 207.328 242.302,215.680 245.449,223.833 247.999 C 225.621 248.558,227.533 249.156,228.083 249.329 C 230.594 250.119,237.705 252.012,246.500 254.231 C 261.278 257.960,270.727 260.412,274.167 261.411 C 274.579 261.531,275.517 261.795,276.250 261.997 C 276.983 262.199,278.333 262.587,279.250 262.859 C 280.167 263.130,281.442 263.506,282.083 263.695 C 303.239 269.905,312.500 279.057,312.500 293.755 C 312.500 301.892,309.559 309.135,303.591 315.694 C 294.861 325.290,283.312 330.070,266.000 331.250 C 233.013 333.501,211.873 321.193,202.589 294.333 C 199.778 286.201,199.833 286.901,199.833 259.762 C 199.833 248.251,199.862 238.833,199.898 238.833 C 199.933 238.833,200.777 239.217,201.773 239.686 " stroke="none" fill="#fbfbfb" fill-rule="evenodd"></path></g></svg>